<?xml version="1.0" encoding="utf-8"?>
<!-- Generator: Adobe Illustrator 28.3.0, SVG Export Plug-In . SVG Version: 6.00 Build 0)  -->
<!DOCTYPE svg PUBLIC "-//W3C//DTD SVG 1.1//EN" "http://www.w3.org/Graphics/SVG/1.1/DTD/svg11.dtd" [
	<!ENTITY ns_extend "http://ns.adobe.com/Extensibility/1.0/">
	<!ENTITY ns_ai "http://ns.adobe.com/AdobeIllustrator/10.0/">
	<!ENTITY ns_graphs "http://ns.adobe.com/Graphs/1.0/">
	<!ENTITY ns_vars "http://ns.adobe.com/Variables/1.0/">
	<!ENTITY ns_imrep "http://ns.adobe.com/ImageReplacement/1.0/">
	<!ENTITY ns_sfw "http://ns.adobe.com/SaveForWeb/1.0/">
	<!ENTITY ns_custom "http://ns.adobe.com/GenericCustomNamespace/1.0/">
	<!ENTITY ns_adobe_xpath "http://ns.adobe.com/XPath/1.0/">
]>
<svg version="1.1" id="Layer_1" xmlns:x="&ns_extend;" xmlns:i="&ns_ai;" xmlns:graph="&ns_graphs;"
	 xmlns="http://www.w3.org/2000/svg" xmlns:xlink="http://www.w3.org/1999/xlink" x="0px" y="0px" viewBox="0 0 335.8 239.6"
	 style="enable-background:new 0 0 335.8 239.6;" xml:space="preserve">
<style type="text/css">
	.st0{fill:#6C6C6C;}
</style>
<metadata>
	<sfw  xmlns="&ns_sfw;">
		<slices></slices>
		<sliceSourceBounds  bottomLeftOrigin="true" height="239.6" width="335.8" x="332.4" y="380.6"></sliceSourceBounds>
	</sfw>
</metadata>
<path class="st0" d="M168.1,0c43.2,0,86.3,0,129.5,0c23,0,38.2,15.2,38.2,38.2c0,54.4,0,108.8,0,163.2c0,23-15.2,38.2-38.2,38.2
	c-86.7,0-173.4,0-260.2,0c-18.7,0-33-11.3-36.7-28.9c-0.6-3-0.7-6.2-0.7-9.3C0,147,0,92.6,0,38.2C0,15,15.2,0,38.5,0
	C81.7,0,124.9,0,168.1,0z M40.7,215.4c83.2,0,165.6,0,248.7,0c-27.6-29.1-54.8-57.7-82.2-86.5c-4.5,4.3-8.9,8.4-13.2,12.5
	c-15.5,14.8-36.5,14.8-51.9,0c-5.4-5.2-10.8-10.3-16.3-15.6C97.4,155.7,69.3,185.3,40.7,215.4z M54.2,24.1c1,1,1.4,1.5,1.8,1.9
	c34.4,32.9,68.7,65.7,103.1,98.5c5.8,5.6,12.4,5.3,18.5-0.5c33.5-32.1,67.1-64.2,100.6-96.2c1.1-1.1,2.4-2,3.6-3
	c-0.2-0.2-0.4-0.5-0.6-0.7C205.8,24.1,130.4,24.1,54.2,24.1z M310.7,29.9c-29.1,27.8-57.5,55-86.2,82.4
	c29.1,30.6,57.8,60.9,87.1,91.6c0.1-1.3,0.2-1.7,0.2-2.2c0-55.2,0-110.5,0-165.7C311.8,34.3,311.2,32.5,310.7,29.9z M24.6,197.6
	c28.2-29.6,56-58.9,83.9-88.3C80.7,82.8,53.2,56.5,25.7,30.2C23.8,33.9,22.9,189.5,24.6,197.6z"/>
</svg>
