<?xml version="1.0" encoding="utf-8"?>
<!-- Generator: Adobe Illustrator 28.3.0, SVG Export Plug-In . SVG Version: 6.00 Build 0)  -->
<!DOCTYPE svg PUBLIC "-//W3C//DTD SVG 1.1//EN" "http://www.w3.org/Graphics/SVG/1.1/DTD/svg11.dtd" [
	<!ENTITY ns_extend "http://ns.adobe.com/Extensibility/1.0/">
	<!ENTITY ns_ai "http://ns.adobe.com/AdobeIllustrator/10.0/">
	<!ENTITY ns_graphs "http://ns.adobe.com/Graphs/1.0/">
	<!ENTITY ns_vars "http://ns.adobe.com/Variables/1.0/">
	<!ENTITY ns_imrep "http://ns.adobe.com/ImageReplacement/1.0/">
	<!ENTITY ns_sfw "http://ns.adobe.com/SaveForWeb/1.0/">
	<!ENTITY ns_custom "http://ns.adobe.com/GenericCustomNamespace/1.0/">
	<!ENTITY ns_adobe_xpath "http://ns.adobe.com/XPath/1.0/">
]>
<svg version="1.1" id="Layer_1" xmlns:x="&ns_extend;" xmlns:i="&ns_ai;" xmlns:graph="&ns_graphs;"
	 xmlns="http://www.w3.org/2000/svg" xmlns:xlink="http://www.w3.org/1999/xlink" x="0px" y="0px" viewBox="0 0 343 344.2"
	 style="enable-background:new 0 0 343 344.2;" xml:space="preserve">
<style type="text/css">
	.st0{fill:#6C6C6C;}
</style>
<metadata>
	<sfw  xmlns="&ns_sfw;">
		<slices></slices>
		<sliceSourceBounds  bottomLeftOrigin="true" height="344.2" width="343" x="329" y="328"></sliceSourceBounds>
	</sfw>
</metadata>
<path class="st0" d="M259.2,344.2c-23.7-0.9-45.6-7.5-66.6-17.7c-44-21.3-80.8-52-113.9-87.5c-22.8-24.4-42.9-50.9-58.3-80.7
	C10.9,139.9,3.6,120.9,1,100.2c-4.4-35.8,5.7-66,34.6-88.5C49.6,0.8,65.8-3,83.2,2.5c8,2.5,14.4,7.3,19.2,14.2
	C115.3,34.8,128.2,52.8,141,71c4.9,7,8.6,14.6,9.4,23.3c1.1,11.3-3.9,20.4-10.9,28.6c-4.2,4.9-8.8,9.6-13.4,14.1
	c-1.9,1.9-2.4,3.4-0.6,5.7c7.3,9,14.3,18.3,22,26.9c13.6,15.3,28.4,29.5,44.6,42.1c3.2,2.5,6.9,6.2,10.3,6.2c3,0,6-4.5,9-7
	c5.8-4.7,11.3-9.8,17.6-13.8c9.7-6.1,20.6-6.9,30.7-1.7c10.3,5.4,20,12.2,29.6,18.7c11.6,7.8,22.5,16.6,34.3,24.1
	c19.5,12.4,22.6,34.1,16.3,50.9c-9.9,26.5-29.3,43.2-56.3,50.8C275.8,342.2,267.4,342.8,259.2,344.2z M249,319.3
	c21.7,0,35.6-3.2,45.5-9.9c11.7-7.9,20.9-17.8,23.9-32.1c1.6-7.5-0.4-13.7-7.3-18.5c-17-11.6-33.6-23.8-50.4-35.6
	c-3.5-2.4-7.1-4.7-11-6.2c-2.3-0.9-5.6-0.7-7.7,0.3c-3.5,1.7-6.7,4.4-9.6,7c-4.4,3.9-8.3,8.3-12.6,12.3c-7.2,6.9-16.7,8.7-25.5,4.4
	c-5.7-2.8-11.2-6.2-16.2-10c-18.8-14.4-35.8-30.7-51.2-48.6c-8.1-9.4-15.8-19.3-22.8-29.5c-7.3-10.7-5.7-21.2,3.2-30.5
	c4.1-4.2,8.2-8.4,12.2-12.7c8.8-9.3,9.4-14.2,2.1-24.7c-12.6-18.1-25.5-36.1-38.3-54c-3.3-4.6-7.9-6.7-13.5-6.8
	c-7.6,0-14.6,2.4-20.4,7.1C39.9,38.8,32.6,48,28.3,59.4c-6,15.8-5.2,31.8-1.8,47.9c4.5,21.7,14.3,41.3,26.4,59.5
	c41.1,62.2,93,112.4,161.7,143.6C227.4,316.2,240.8,319.2,249,319.3z"/>
</svg>
