<?xml version="1.0" encoding="utf-8"?>
<!-- Generator: Adobe Illustrator 28.3.0, SVG Export Plug-In . SVG Version: 6.00 Build 0)  -->
<!DOCTYPE svg PUBLIC "-//W3C//DTD SVG 1.1//EN" "http://www.w3.org/Graphics/SVG/1.1/DTD/svg11.dtd" [
	<!ENTITY ns_extend "http://ns.adobe.com/Extensibility/1.0/">
	<!ENTITY ns_ai "http://ns.adobe.com/AdobeIllustrator/10.0/">
	<!ENTITY ns_graphs "http://ns.adobe.com/Graphs/1.0/">
	<!ENTITY ns_vars "http://ns.adobe.com/Variables/1.0/">
	<!ENTITY ns_imrep "http://ns.adobe.com/ImageReplacement/1.0/">
	<!ENTITY ns_sfw "http://ns.adobe.com/SaveForWeb/1.0/">
	<!ENTITY ns_custom "http://ns.adobe.com/GenericCustomNamespace/1.0/">
	<!ENTITY ns_adobe_xpath "http://ns.adobe.com/XPath/1.0/">
]>
<svg version="1.1" id="Layer_1" xmlns:x="&ns_extend;" xmlns:i="&ns_ai;" xmlns:graph="&ns_graphs;"
	 xmlns="http://www.w3.org/2000/svg" xmlns:xlink="http://www.w3.org/1999/xlink" x="0px" y="0px" viewBox="0 0 64.7 64.7"
	 style="enable-background:new 0 0 64.7 64.7;" xml:space="preserve">
<metadata>
	<sfw  xmlns="&ns_sfw;">
		<slices></slices>
		<sliceSourceBounds  bottomLeftOrigin="true" height="64.7" width="64.7" x="467.6" y="467.5"></sliceSourceBounds>
	</sfw>
</metadata>
<path d="M37.9,32.4L63.6,6.7c1.5-1.5,1.5-4,0-5.6c-1.5-1.5-4-1.5-5.6,0L32.4,26.8L6.7,1.2c-1.5-1.5-4-1.5-5.6,0
	c-1.5,1.5-1.5,4,0,5.6l25.6,25.6L1.2,58c-1.5,1.5-1.5,4,0,5.6c1.5,1.5,4,1.5,5.6,0l25.6-25.6L58,63.6c1.5,1.5,4,1.5,5.6,0
	c1.5-1.5,1.5-4,0-5.6L37.9,32.4z"/>
</svg>
