<?xml version="1.0" encoding="utf-8"?>
<!-- Generator: Adobe Illustrator 28.3.0, SVG Export Plug-In . SVG Version: 6.00 Build 0)  -->
<!DOCTYPE svg PUBLIC "-//W3C//DTD SVG 1.1//EN" "http://www.w3.org/Graphics/SVG/1.1/DTD/svg11.dtd" [
	<!ENTITY ns_extend "http://ns.adobe.com/Extensibility/1.0/">
	<!ENTITY ns_ai "http://ns.adobe.com/AdobeIllustrator/10.0/">
	<!ENTITY ns_graphs "http://ns.adobe.com/Graphs/1.0/">
	<!ENTITY ns_vars "http://ns.adobe.com/Variables/1.0/">
	<!ENTITY ns_imrep "http://ns.adobe.com/ImageReplacement/1.0/">
	<!ENTITY ns_sfw "http://ns.adobe.com/SaveForWeb/1.0/">
	<!ENTITY ns_custom "http://ns.adobe.com/GenericCustomNamespace/1.0/">
	<!ENTITY ns_adobe_xpath "http://ns.adobe.com/XPath/1.0/">
]>
<svg version="1.1" id="Layer_1" xmlns:x="&ns_extend;" xmlns:i="&ns_ai;" xmlns:graph="&ns_graphs;"
	 xmlns="http://www.w3.org/2000/svg" xmlns:xlink="http://www.w3.org/1999/xlink" x="0px" y="0px" viewBox="0 0 194 194"
	 style="enable-background:new 0 0 194 194;" xml:space="preserve">
<style type="text/css">
	.st0{display:none;}
	.st1{display:inline;fill:#455D77;}
	.st2{display:inline;fill:#FFFFFF;}
	.st3{fill:#455D77;}
	.st4{fill:#FFFFFF;}
</style>
<metadata>
	<sfw  xmlns="&ns_sfw;">
		<slices></slices>
		<sliceSourceBounds  bottomLeftOrigin="true" height="194" width="194" x="0" y="0"></sliceSourceBounds>
	</sfw>
</metadata>
<g class="st0">
	<path class="st1" d="M194,0.4c0,64.5,0,129.1,0,193.6c-64.7,0-129.3,0-194,0C0,129.5,0,64.9,0,0.4C64.7,0.4,129.3,0.4,194,0.4z
		 M158.8,97.3c0-15,0-30,0-45c0-1.7-0.1-3.6-0.6-5.2c-2-7.3-7.9-11.5-15.8-11.5c-30.1,0-60.1,0-90.2,0c-10.4,0-16.9,6.5-16.9,16.8
		c0,29.9,0,59.7,0,89.6c0,10.4,6.5,16.8,16.9,16.8c29.9,0,59.7,0,89.6,0c10.6,0,17-6.4,17-16.9C158.8,127,158.8,112.2,158.8,97.3z"
		/>
	<path class="st2" d="M194,0.4c-64.7,0-129.3,0-194,0C0.5,0.3,1,0,1.5,0c8,0,15.9,0,23.9,0C81,0,136.7,0,192.3,0
		C192.9,0,193.4,0.3,194,0.4z"/>
	<path class="st2" d="M158.8,97.3c0,14.9,0,29.7,0,44.6c0,10.5-6.5,16.9-17,16.9c-29.9,0-59.7,0-89.6,0c-10.4,0-16.9-6.5-16.9-16.8
		c0-29.9,0-59.7,0-89.6c0-10.4,6.5-16.8,16.9-16.8c30.1,0,60.1,0,90.2,0c7.9,0,13.8,4.2,15.8,11.5c0.5,1.7,0.6,3.5,0.6,5.2
		C158.8,67.3,158.8,82.3,158.8,97.3z M47.2,89c0,0.8-0.1,1.4-0.1,2c0,16.3,0,32.5,0,48.8c0,5.1,2.1,7.2,7.3,7.2
		c28.4,0,56.8,0,85.2,0c5.1,0,7.3-2.1,7.3-7.2c0-16.2,0-32.4,0-48.6c0-0.7,0-1.3,0-2.1c-4.1,0-8,0-12.1,0
		c2.2,11.9-0.1,22.7-7.6,32.1c-7.6,9.5-17.6,14.3-29.7,14.6c-9.4,0.2-18-2.8-25.1-8.9C60.7,116.8,56.7,104,59.2,89
		C55.1,89,51.3,89,47.2,89z M97,71.2c-14.3,0-26.1,11.7-26,26c0,14.2,11.5,25.7,25.9,25.9c14.2,0.2,26-11.5,26.1-25.9
		C123.1,83.1,111.4,71.3,97,71.2z M143.3,60.3L143.3,60.3c0-1.6,0-3.1,0-4.7c-0.1-3.3-2.1-5.3-5.3-5.4c-3.2-0.1-6.4-0.1-9.7,0
		c-3.1,0.1-5.2,1.9-5.4,5c-0.2,3.5-0.2,6.9,0,10.4c0.1,2.9,2,4.8,4.8,4.9c3.6,0.2,7.2,0.2,10.8,0c2.8-0.1,4.6-2.2,4.7-5
		C143.3,63.7,143.3,62,143.3,60.3z"/>
	<path class="st1" d="M47.2,89c4.1,0,7.9,0,12,0c-2.5,15,1.6,27.8,13.1,37.7c7.2,6.2,15.7,9.1,25.1,8.9c12.1-0.2,22.2-5.1,29.7-14.6
		c7.5-9.4,9.8-20.2,7.6-32.1c4.1,0,8,0,12.1,0c0,0.8,0,1.5,0,2.1c0,16.2,0,32.4,0,48.6c0,5.1-2.1,7.2-7.3,7.2c-28.4,0-56.8,0-85.2,0
		c-5.2,0-7.3-2.1-7.3-7.2c0-16.3,0-32.5,0-48.8C47.1,90.4,47.2,89.8,47.2,89z"/>
	<path class="st1" d="M97,71.2c14.4,0,26.1,11.8,26,26c-0.1,14.4-11.9,26.1-26.1,25.9C82.5,122.9,71,111.4,71,97.2
		C71,82.9,82.8,71.2,97,71.2z"/>
	<path class="st1" d="M143.3,60.3c0,1.7,0.1,3.4,0,5.1c-0.1,2.8-1.9,4.8-4.7,5c-3.6,0.2-7.2,0.2-10.8,0c-2.8-0.1-4.7-2-4.8-4.9
		c-0.2-3.5-0.2-6.9,0-10.4c0.2-3.1,2.2-4.9,5.4-5s6.4-0.1,9.7,0c3.2,0.1,5.2,2.1,5.3,5.4C143.3,57.2,143.3,58.8,143.3,60.3
		L143.3,60.3z"/>
</g>
<g>
	<path class="st3" d="M193.6,194c-64.5,0-129.1,0-193.6,0C0,129.5,0,64.9,0,0.4c64.5,0,129,0,193.6,0
		C193.6,65.1,193.6,129.6,193.6,194z M124.8,31.3c-6.1,0-12.1,0-18,0c-2.3,0-4.7-0.1-7,0.3c-11.6,1.9-19.3,11-19.3,22.8
		c0,7.4,0,14.7,0,22.1c0,0.7,0,1.3,0,2.2c-5.2,0-10.1,0-15.1,0c0,5.2,0,10.2,0,15.5c5,0,9.9,0,15,0c0,23.1,0,45.9,0,68.8
		c7.6,0,15,0,22.6,0c0-23,0-45.8,0-68.8c0.9,0,1.6,0,2.2,0c5.6,0,11.2,0,16.8,0c0.6,0,1.6-0.4,1.8-0.8c1.5-4.8,3-9.6,4.5-14.7
		c-8.6,0-16.9,0-25.4,0c0-4.8,0-9.4,0-14c0-2.4-0.1-4.8,0-7.2c0.2-3.9,2.6-6.3,6.5-6.4c2.2-0.1,4.4,0,6.6,0c2.9,0,5.8,0,8.8,0
		C124.8,44.3,124.8,37.9,124.8,31.3z"/>
	<path class="st4" d="M193.6,194c0-64.5,0-128.9,0-193.6C129,0.4,64.5,0.4,0,0.4C0.5,0.3,1,0,1.5,0C9,0,16.5,0,24,0
		c56.7,0,113.3,0,170,0c0,64.1,0,128.2,0,192.3C194,192.9,193.8,193.5,193.6,194z"/>
	<path class="st4" d="M124.8,31.3c0,6.6,0,13,0,19.6c-3,0-5.9,0-8.8,0c-2.2,0-4.4,0-6.6,0c-3.9,0.1-6.3,2.5-6.5,6.4
		c-0.1,2.4,0,4.8,0,7.2c0,4.6,0,9.2,0,14c8.5,0,16.8,0,25.4,0c-1.5,5.1-2.9,9.9-4.5,14.7c-0.1,0.4-1.2,0.8-1.8,0.8
		c-5.6,0.1-11.2,0-16.8,0c-0.7,0-1.4,0-2.2,0c0,23,0,45.8,0,68.8c-7.6,0-15,0-22.6,0c0-22.9,0-45.7,0-68.8c-5.1,0-10,0-15,0
		c0-5.2,0-10.2,0-15.5c4.9,0,9.9,0,15.1,0c0-0.9,0-1.5,0-2.2c0-7.4,0-14.7,0-22.1c0.1-11.8,7.7-20.9,19.3-22.8
		c2.3-0.4,4.6-0.2,7-0.3C112.8,31.3,118.7,31.3,124.8,31.3z"/>
</g>
<g class="st0">
	<path class="st1" d="M193.6,194c-64.5,0-129.1,0-193.6,0C0,129.5,0,64.9,0,0.4c64.5,0,129,0,193.6,0
		C193.6,65.1,193.6,129.6,193.6,194z M90.8,64c-3.7,0-7.3,0-11,0c-0.7,0-1.5,0.4-2.2,0.6c0.3,0.7,0.5,1.5,1,2.1
		c2.9,3,4.1,6.5,4,10.6c-0.2,6,0,12.1-0.1,18.1c0,0.8-0.3,1.9-0.9,2.2c-0.5,0.3-1.7-0.1-2.3-0.5c-4.4-2.9-7.9-6.9-10.6-11.4
		c-2.9-4.7-5.5-9.5-8-14.3c-1.8-3.6-4.5-5.4-8.6-5.3c-4.2,0.1-8.3,0-12.5,0c-4.3,0-5.7,2-4.3,6c5.4,14.9,13.2,28.5,23.5,40.7
		c5.1,6,10.4,11.7,17,16c8.2,5.3,17,6.2,26.3,3.9c4.1-1,5.5-3.1,5.7-7.4c0.1-1.8,0.2-3.5,0.5-5.2c0.3-1.6,1.5-2.4,3.1-1.9
		s3.3,1.1,4.6,2.1c3.9,3.2,7.7,6.5,11.5,9.8c2.8,2.5,5.9,3.9,9.8,3.8c5.6-0.1,11.2,0,16.8,0c1.9,0,3.7-0.2,4.6-2.2
		c0.9-2,0-3.5-1.3-5c-5-5.7-9.9-11.4-14.9-17.1c-3.4-4-3.6-6.3-0.9-10.7c5.5-8.8,11.1-17.6,16.6-26.4c0.9-1.4,1.3-2.7,0.5-4.2
		c-0.9-1.5-2.2-1.8-3.9-1.8c-6.1,0-12.2,0.1-18.3,0c-3.5-0.1-6,1.3-7.9,4.2c-4.3,6.5-8.6,13-12.9,19.5c-1.1,1.7-2.2,3.5-3.5,5.2
		c-0.4,0.5-1.4,1-2,0.8c-0.5-0.1-0.8-1.1-1.1-1.7c-0.2-0.4,0-1,0-1.5c0-7.2,0-14.4,0-21.6c0-4.9-2.6-7.5-7.5-7.5
		C97.9,64,94.4,64,90.8,64z"/>
	<path class="st2" d="M193.6,194c0-64.5,0-128.9,0-193.6C129,0.4,64.5,0.4,0,0.4C0.5,0.3,1,0,1.5,0C9,0,16.5,0,24,0
		c56.7,0,113.3,0,170,0c0,64.1,0,128.2,0,192.3C194,192.9,193.8,193.5,193.6,194z"/>
	<path class="st2" d="M90.8,64c3.6,0,7.2,0,10.8,0c4.8,0,7.4,2.7,7.5,7.5c0,7.2,0,14.4,0,21.6c0,0.5-0.1,1.1,0,1.5
		c0.2,0.7,0.6,1.6,1.1,1.7c0.6,0.1,1.6-0.3,2-0.8c1.3-1.6,2.3-3.4,3.5-5.2c4.3-6.5,8.7-13,12.9-19.5c1.9-2.9,4.4-4.3,7.9-4.2
		c6.1,0.1,12.2,0,18.3,0c1.6,0,3,0.3,3.9,1.8s0.4,2.9-0.5,4.2c-5.5,8.8-11.1,17.6-16.6,26.4c-2.8,4.4-2.6,6.7,0.9,10.7
		c5,5.7,9.9,11.4,14.9,17.1c1.3,1.5,2.1,3,1.3,5c-0.9,2-2.7,2.2-4.6,2.2c-5.6,0-11.2-0.1-16.8,0c-3.8,0.1-6.9-1.3-9.8-3.8
		c-3.7-3.4-7.5-6.7-11.5-9.8c-1.3-1-3-1.6-4.6-2.1s-2.8,0.3-3.1,1.9c-0.3,1.7-0.4,3.5-0.5,5.2c-0.2,4.3-1.6,6.3-5.7,7.4
		c-9.3,2.3-18.1,1.4-26.3-3.9c-6.6-4.3-12-10-17-16c-10.3-12.1-18.1-25.7-23.5-40.7c-1.4-4,0-6,4.3-6c4.2,0,8.3,0.1,12.5,0
		c4-0.1,6.7,1.6,8.6,5.3c2.5,4.9,5.2,9.7,8,14.3c2.7,4.5,6.2,8.4,10.6,11.4c0.7,0.4,1.8,0.8,2.3,0.5s0.9-1.5,0.9-2.2
		c0.1-6-0.1-12.1,0.1-18.1c0.1-4.2-1.1-7.6-4-10.6c-0.5-0.5-0.7-1.4-1-2.1c0.7-0.2,1.5-0.6,2.2-0.6C83.4,63.9,87.1,64,90.8,64z"/>
</g>
</svg>
