<?xml version="1.0" encoding="utf-8"?>
<!-- Generator: Adobe Illustrator 28.3.0, SVG Export Plug-In . SVG Version: 6.00 Build 0)  -->
<!DOCTYPE svg PUBLIC "-//W3C//DTD SVG 1.1//EN" "http://www.w3.org/Graphics/SVG/1.1/DTD/svg11.dtd" [
	<!ENTITY ns_extend "http://ns.adobe.com/Extensibility/1.0/">
	<!ENTITY ns_ai "http://ns.adobe.com/AdobeIllustrator/10.0/">
	<!ENTITY ns_graphs "http://ns.adobe.com/Graphs/1.0/">
	<!ENTITY ns_vars "http://ns.adobe.com/Variables/1.0/">
	<!ENTITY ns_imrep "http://ns.adobe.com/ImageReplacement/1.0/">
	<!ENTITY ns_sfw "http://ns.adobe.com/SaveForWeb/1.0/">
	<!ENTITY ns_custom "http://ns.adobe.com/GenericCustomNamespace/1.0/">
	<!ENTITY ns_adobe_xpath "http://ns.adobe.com/XPath/1.0/">
]>
<svg version="1.1" id="Layer_1" xmlns:x="&ns_extend;" xmlns:i="&ns_ai;" xmlns:graph="&ns_graphs;"
	 xmlns="http://www.w3.org/2000/svg" xmlns:xlink="http://www.w3.org/1999/xlink" x="0px" y="0px" viewBox="0 0 336.6 383.2"
	 style="enable-background:new 0 0 336.6 383.2;" xml:space="preserve">
<metadata>
	<sfw  xmlns="&ns_sfw;">
		<slices></slices>
		<sliceSourceBounds  bottomLeftOrigin="true" height="383.2" width="336.6" x="340.9" y="344"></sliceSourceBounds>
	</sfw>
</metadata>
<g>
	<path d="M175,0c9.8,2.3,20,3.5,29.3,7c43.7,16.3,70.6,62,64,107.4c-6.9,47.1-44.1,82.8-90.7,87c-54.3,4.9-103.4-34.5-109.5-87.7
		C61.8,58,99.8,8.7,154.9,1c2.2-0.3,4.4-0.7,6.6-1C166,0,170.5,0,175,0z M89.6,101.1c0,43.3,35.2,78.6,78.5,78.7
		c43.6,0.1,78.9-35.1,79-78.6c0-43.5-35.2-78.8-78.7-78.9C124.8,22.3,89.6,57.6,89.6,101.1z"/>
	<path d="M168.4,383.2c-51.5,0-103,0-154.6,0C3.9,383.2-0.2,379,0,369C1.3,298,53.7,236,124.1,226.9c40.1-5.1,81.6-8.2,120.3,8.4
		c54.6,23.4,85.3,65.5,91.4,124.8c2.2,21.7,0.3,23-21.5,23C265.7,383.2,217.1,383.2,168.4,383.2z M168.4,360.9
		c47,0,94.1-0.1,141.1,0.1c3.9,0,4.5-1.2,4.1-4.7c-6-52.6-47-98.2-99.2-106.7c-23.3-3.8-47.5-2.7-71.2-2.6
		c-60.3,0.2-114,49.6-120.1,109.5c-0.3,3.3,0.3,4.4,3.9,4.4C74.1,360.9,121.2,360.9,168.4,360.9z"/>
</g>
</svg>
